<?xml version="1.0" encoding="UTF-8"?>
<svg version="1.1" xmlns="http://www.w3.org/2000/svg" width="1153" height="1153">
<path d="M0 0 C4.21844688 1.3104979 8.04210521 2.91505138 11.96484375 4.94140625 C13.08656982 5.52011475 14.2082959 6.09882324 15.36401367 6.69506836 C16.55550271 7.31691957 17.74665823 7.93941017 18.9375 8.5625 C19.54558502 8.87945831 20.15367004 9.19641663 20.78018188 9.52297974 C29.32258882 13.98114108 37.75162754 18.55161017 45.90966797 23.68896484 C48.45231184 25.28368542 51.0095551 26.85394303 53.56640625 28.42578125 C66.29120464 36.27742598 78.75580172 44.41994775 91 53 C91.74894531 53.52223145 92.49789062 54.04446289 93.26953125 54.58251953 C102.30977316 60.88843956 111.24151036 67.30652011 120 74 C121.03382813 74.78890625 122.06765625 75.5778125 123.1328125 76.390625 C126.43155436 78.91463206 129.71743038 81.45501181 133 84 C133.57008789 84.44102051 134.14017578 84.88204102 134.72753906 85.33642578 C142.27128007 91.18061375 149.65129793 97.17628197 156.90625 103.375 C159.7955132 105.83915964 162.73518458 108.23661 165.6875 110.625 C170.13903808 114.24834495 174.42382455 118.01963872 178.66796875 121.8828125 C180.75823889 123.78051169 182.86986115 125.64733415 185 127.5 C190.77137227 132.53263662 196.4601301 137.65746469 202.09375 142.84375 C202.6187207 143.32682617 203.14369141 143.80990234 203.68457031 144.30761719 C205.17132806 145.67751188 206.6560345 147.04963189 208.140625 148.421875 C210.18116507 150.26170621 212.21974543 151.98991633 214.359375 153.703125 C215.23078125 154.46109375 216.1021875 155.2190625 217 156 C217 156.66 217 157.32 217 158 C217.56772629 158.24273651 218.13545258 158.48547302 218.72038269 158.73556519 C221.43694185 160.24235844 223.27843877 162.03145277 225.47387695 164.23095703 C226.35191483 165.10591827 227.2299527 165.98087952 228.13459778 166.88235474 C229.08600364 167.84066393 230.03722684 168.79915451 230.98828125 169.7578125 C231.97434043 170.74506539 232.96077133 171.73194714 233.94755554 172.71847534 C236.01592197 174.78840498 238.0808911 176.86164521 240.14331055 178.9375 C242.76728855 181.57836709 245.39769916 184.21270554 248.03051472 186.84475899 C250.07018517 188.88470366 252.10722111 190.92726248 254.14342308 192.97066879 C255.11113294 193.9415293 256.07942184 194.91181305 257.04833412 195.88147354 C262.03491091 200.8761131 266.92129439 205.89871912 271.49211121 211.27926636 C273.08943269 213.1020565 274.76990642 214.8034066 276.5 216.5 C278.87568539 218.83881222 281.12730613 221.23216538 283.3125 223.75 C284.14774499 224.68582727 284.14774499 224.68582727 284.99986362 225.64056015 C287 228 287 228 288.95117855 230.76913834 C292.38623668 235.26429757 295.10838252 238.46294473 300.66212654 240.03972626 C305.08850118 240.59209406 309.51241067 240.53168599 313.96508789 240.48339844 C315.66628782 240.50492582 317.36743395 240.53113197 319.0684967 240.56163025 C323.66407222 240.62965733 328.25725759 240.62925322 332.85321736 240.61364651 C337.67519821 240.6064684 342.49668608 240.65449582 347.31846619 240.69415283 C355.41281283 240.75190939 363.50630872 240.76496876 371.60083008 240.75146484 C380.9449362 240.73643977 390.2865545 240.7928176 399.63014799 240.88731551 C408.63872595 240.97671582 417.64683537 241.01485569 426.65582085 241.03003693 C430.48086146 241.03740826 434.30515609 241.06267925 438.12999153 241.10259247 C442.63772174 241.14735475 447.14331337 241.14709146 451.65111351 241.11279488 C453.30023565 241.10734677 454.9494923 241.11707992 456.59841156 241.14351463 C465.68169362 241.41533207 465.68169362 241.41533207 473.90948296 238.06754303 C476.18801928 235.82429876 478.09722347 233.56443048 480 231 C481.19947242 229.61726345 482.40640879 228.24091724 483.625 226.875 C484.18445313 226.22273437 484.74390625 225.57046875 485.3203125 224.8984375 C486.98204576 223.02029247 488.71125525 221.25694484 490.5 219.5 C492.851726 217.18980559 495.05039265 214.82217812 497.1875 212.3125 C500.7417606 208.18057176 504.57318745 204.36568985 508.47338867 200.5637207 C511.18618322 197.89797145 513.75158556 195.16677653 516.23046875 192.28125 C520.69269801 187.12544178 525.49465308 182.32135081 530.3125 177.5 C531.21806641 176.5821875 532.12363281 175.664375 533.05664062 174.71875 C533.92095703 173.8525 534.78527344 172.98625 535.67578125 172.09375 C536.45864502 171.30677734 537.24150879 170.51980469 538.0480957 169.70898438 C540 168 540 168 542 168 C542 167.34 542 166.68 542 166 C543.328125 164.6953125 543.328125 164.6953125 545.25 163.125 C549.03035003 159.92108632 552.52639541 156.52661586 556 153 C559.84086672 149.11567648 563.72379684 145.37439338 567.88671875 141.83203125 C570.05667614 139.95086671 572.16509167 138.01028032 574.26977539 136.05664062 C579.45625283 131.24361582 584.77046823 126.68474508 590.28515625 122.24609375 C593.10673495 119.9116941 595.80590712 117.48009402 598.5 115 C603.8296789 110.1063174 609.36696488 105.53792156 615 101 C616.26506799 99.96705767 617.5293428 98.93314342 618.79296875 97.8984375 C627.08537866 91.11556093 635.45977435 84.46788482 644 78 C645.40572266 76.93072266 645.40572266 76.93072266 646.83984375 75.83984375 C649.32552934 73.96108825 651.81991441 72.0950664 654.32421875 70.24121094 C655.4665074 69.39514516 656.60706497 68.54673841 657.74609375 67.69628906 C680.85493849 50.48679528 705.12769947 34.53635371 730 20 C731.07725342 19.37013184 731.07725342 19.37013184 732.17626953 18.72753906 C736.74354146 16.07501225 741.35755638 13.51816452 746 11 C746.88091309 10.51805176 747.76182617 10.03610352 748.66943359 9.53955078 C751.54387634 7.97216136 754.42670061 6.42136676 757.3125 4.875 C758.22725098 4.37653564 759.14200195 3.87807129 760.08447266 3.36450195 C761.36717041 2.6852063 761.36717041 2.6852063 762.67578125 1.9921875 C763.43802002 1.58339355 764.20025879 1.17459961 764.9855957 0.75341797 C767 0 767 0 770 1 C787.02716389 87.89108879 785.59803197 172.57108397 719 362 C717.75089844 361.5771875 716.50179687 361.154375 715.21484375 360.71875 C699.6999744 355.55621585 684.24140318 351.08009774 668 349 C666.6078125 348.80470703 666.6078125 348.80470703 665.1875 348.60546875 C651.70613328 347.02562109 637.46849194 347.43843572 624 349 C625.28191085 345.25089389 626.6518516 343.04456439 629.5625 340.375 C681.81157123 289.91141861 714.18408434 198.20579215 716.09765625 126.33203125 C716.06542969 125.56246094 716.03320312 124.79289062 716 124 C702.83386086 131.96828461 691.10713141 141.52544912 679.55908203 151.63623047 C678.22076857 152.806888 676.8747951 153.96877831 675.52734375 155.12890625 C663.85234345 165.36205403 652.42056587 176.40475835 642.8515625 188.65234375 C641.07113656 190.90980364 639.19842674 193.01219981 637.25 195.125 C631.6826189 201.33053941 626.73626838 208.02817097 621.73535156 214.69091797 C620.60066014 216.20075357 619.46213875 217.70772039 618.31933594 219.21142578 C578.46613596 271.6541375 546.9818069 331.22767178 522.75 392.375 C522.42935577 393.18087555 522.10871155 393.9867511 521.77835083 394.81704712 C518.36263272 403.4328005 515.1211155 411.95435709 513 421 C513.60263672 420.47833252 514.20527344 419.95666504 514.82617188 419.41918945 C548.09692299 391.00229118 596.49119464 389.81864361 638.05517578 392.94555664 C700.90212678 398.29506547 758.06732683 420.32603236 805 463 C805.65548828 463.59377441 806.31097656 464.18754883 806.98632812 464.79931641 C820.1512396 476.77000949 820.1512396 476.77000949 825.36328125 483.05859375 C827.31961898 485.37911845 829.41248931 487.54670568 831.5 489.75 C855.30293842 515.96199714 873.67499074 547.56634773 889.875 578.875 C890.40768997 579.90123978 890.40768997 579.90123978 890.95114136 580.94821167 C894.84831446 588.47889728 898.56976176 596.06803523 902.0078125 603.8203125 C902.31040985 604.49601288 902.6130072 605.17171326 902.92477417 605.8678894 C904.18157612 608.75536704 905 610.81508929 905 614 C901.22554596 612.74184865 899.73878726 610.87532505 897 608 C890.53513902 601.36842341 884.0895457 595.02947216 876.8203125 589.26171875 C874.33434569 587.26812487 871.92094902 585.21113977 869.51782227 583.11914062 C852.2531226 568.16155748 832.84529165 555.43693757 813.01855469 544.15087891 C811.75000814 543.42761712 810.48453476 542.69891049 809.22363281 541.96240234 C769.51884593 518.81853961 722.50259754 508.79136613 676.9375 508.6875 C676.1690274 508.68382416 675.40055481 508.68014832 674.60879517 508.67636108 C660.30510783 508.64055064 646.21824666 509.86009421 632.1875 512.75 C631.36113037 512.91991455 630.53476074 513.0898291 629.68334961 513.26489258 C598.5086248 519.92434443 569.2180906 533.0812841 545 554 C544.0203125 554.84433594 543.040625 555.68867187 542.03125 556.55859375 C526.99872689 569.78391503 515.93492044 585.71949 506 603 C505.63648438 603.62696777 505.27296875 604.25393555 504.8984375 604.89990234 C459.24476191 684.48591865 449.58042557 787.43345019 421.22485352 932.89526367 C420.95509076 934.31565904 420.6853256 935.73605395 420.41555786 937.15644836 C419.92948845 939.71618285 419.44588461 942.27633866 418.96383667 944.83683777 C418.32148139 948.22707944 417.66460338 951.61405354 417 955 C416.76121124 956.23743958 416.52242249 957.47487915 416.27639771 958.74981689 C416.02864594 959.97980408 415.78089417 961.20979126 415.52563477 962.47705078 C415.19717308 964.13137619 415.19717308 964.13137619 414.86207581 965.81912231 C413.13835103 972.17930276 409.62384933 977.56422601 406 983 C423.82063041 971.3293671 441.50114184 959.6790802 458.1418457 946.34667969 C460 945 460 945 462.14819336 944.09008789 C464.16081056 943.14535553 464.16081056 943.14535553 464.87988281 941.0456543 C465.06905273 940.25070557 465.25822266 939.45575684 465.453125 938.63671875 C479.23709013 887.00228099 512.38381162 836.88996749 547 797 C547.59941406 796.30003906 548.19882812 795.60007812 548.81640625 794.87890625 C550.52375074 792.90003228 552.25672693 790.94731119 554 789 C554.82371094 788.071875 555.64742187 787.14375 556.49609375 786.1875 C564.82598848 776.91544743 573.84025093 768.44264015 583 760 C584.06010837 759.01455151 585.120027 758.02889883 586.1796875 757.04296875 C591.92151605 751.74844979 597.84626357 746.80530813 604 742 C605.26237118 740.98518606 606.5240322 739.96948835 607.78515625 738.953125 C625.73806399 724.5995118 644.92768783 712.1723247 665 701 C616.50601784 708.1242279 561.10722559 724.84984083 521.88916016 755.65820312 C520 757 520 757 518 757 C527.03789885 727.70793808 546.73815288 700.58619948 567 678 C567.53592773 677.4023584 568.07185547 676.8047168 568.62402344 676.18896484 C595.59253209 646.32053384 628.07824195 622.76208977 663 603 C663.86947266 602.50773926 664.73894531 602.01547852 665.63476562 601.50830078 C680.62818283 593.07910039 695.94250727 585.51335129 711.64941406 578.50585938 C714.86274478 577.06168684 718.05209445 575.57274833 721.2421875 574.078125 C723.16017953 573.21589968 725.07938223 572.35636051 727 571.5 C727.84062988 571.09555664 728.68125977 570.69111328 729.54736328 570.27441406 C736.70824549 567.19222666 741.79837631 568.50599507 749 571 C750.01191406 571.34240723 751.02382813 571.68481445 752.06640625 572.03759766 C755.23510408 573.15675689 758.36839702 574.34351867 761.5 575.5625 C762.62712402 576.00013672 763.75424805 576.43777344 764.91552734 576.88867188 C792.05679564 587.62385169 816.79202004 603.08801706 839 622 C840.04865258 622.86428514 841.09817633 623.72751405 842.1484375 624.58984375 C849.24958122 630.47930073 855.91060359 636.72979579 862.4375 643.25 C863.55523804 644.36652954 863.55523804 644.36652954 864.69555664 645.50561523 C869.32407985 650.18088596 873.72951903 654.9966842 878 660 C878.50926025 660.59280762 879.01852051 661.18561523 879.54321289 661.79638672 C880.97181222 663.46383406 882.39328351 665.13706388 883.8125 666.8125 C884.28880859 667.37130859 884.76511719 667.93011719 885.25585938 668.50585938 C891 675.28410689 891 675.28410689 891 679 C889.99251709 679.2902002 888.98503418 679.58040039 887.94702148 679.87939453 C845.47405633 692.16199469 804.73431583 707.08022207 764.64501953 725.77148438 C762.26746939 726.87577017 759.88374629 727.96465898 757.49609375 729.046875 C746.66348921 733.99208434 736.26891403 739.65643503 725.85693359 745.42675781 C723.00385784 746.99787558 720.1392949 748.54553886 717.26953125 750.0859375 C707.06140792 755.57247407 697.0596923 761.22889452 687.32080078 767.51123047 C684.58731521 769.264733 681.83875491 770.99343931 679.08984375 772.72265625 C666.39777361 780.7346709 654.02864757 789.02368118 642 798 C640.96488281 798.763125 639.92976562 799.52625 638.86328125 800.3125 C635.89081349 802.51853337 632.93909423 804.74984924 630 807 C629.32469238 807.51675293 628.64938477 808.03350586 627.95361328 808.56591797 C618.62218458 815.72430221 609.44432035 823.00829631 600.53564453 830.68652344 C598.98149573 832.01582718 597.4134155 833.32657875 595.83984375 834.6328125 C589.2103768 840.14861786 582.81819371 845.8647648 576.55126953 851.7902832 C573.16126423 854.99542211 569.7293075 858.13873396 566.2421875 861.23828125 C561.0728445 865.87621481 556.12988943 870.71771309 551.23071289 875.63891602 C549.80662508 877.06839717 548.37721956 878.49240511 546.94726562 879.91601562 C542.29212326 884.57764599 537.76076284 889.283211 533.47338867 894.28588867 C531.46251383 896.62530082 529.35362991 898.86903827 527.25 901.125 C522.00714687 906.88185833 517.20784482 912.92051991 512.46826172 919.09472656 C510.97049976 921.03828066 509.45718739 922.96891364 507.94140625 924.8984375 C490.77462779 946.87647336 475.65009744 970.18300711 463.18286133 995.13647461 C459.24916116 1002.90947717 454.58007204 1009.4608632 448.6875 1015.875 C445.29957834 1019.57109059 445.29957834 1019.57109059 441.984375 1023.33203125 C425.67556463 1042.09961265 405.9127296 1057.30783622 386 1072 C376.39434535 1067.33475862 368.12778348 1059.83251918 360 1053 C359.45972168 1052.54608887 358.91944336 1052.09217773 358.36279297 1051.62451172 C351.67798208 1045.9930881 345.08908811 1040.25884009 338.625 1034.375 C338.0592627 1033.86606201 337.49352539 1033.35712402 336.91064453 1032.83276367 C335.56738776 1031.59699269 334.27783457 1030.30330636 333 1029 C333 1028.34 333 1027.68 333 1027 C332.40574219 1026.7421875 331.81148437 1026.484375 331.19921875 1026.21875 C328.80697497 1024.89303053 327.55218361 1023.59621136 325.8125 1021.5 C323.9088762 1019.21565144 322.02976137 1017.02898691 319.8984375 1014.953125 C313.98523975 1009.06082194 310.63465182 1002.72694213 307.07836914 995.29638672 C293.22120459 966.49769829 274.63837955 939.3642463 254 915 C253.10765282 913.93394525 252.21574952 912.86751885 251.32421875 911.80078125 C245.6863484 905.07379915 239.93929877 898.4639056 234 892 C233.51756836 891.47245117 233.03513672 890.94490234 232.53808594 890.40136719 C225.39629878 882.60510047 218.08856266 874.98900925 210.625 867.5 C209.52007202 866.38818359 209.52007202 866.38818359 208.39282227 865.25390625 C204.33448747 861.20700596 200.18137412 857.33587798 195.83984375 853.59472656 C193.22989975 851.33249803 190.71487522 848.97917048 188.1875 846.625 C183.53961458 842.3312462 178.75583652 838.2646816 173.82421875 834.296875 C171.33773275 832.27467062 168.89714201 830.20838121 166.46801758 828.11791992 C158.24506126 821.05688939 149.66607291 814.50471865 141 808 C140.26539551 807.44441406 139.53079102 806.88882813 138.77392578 806.31640625 C107.02340774 782.32866481 73.05223739 761.74953748 38 743 C36.98470215 742.45472656 35.9694043 741.90945313 34.92333984 741.34765625 C-10.83215723 716.86934863 -59.08215708 697.73617869 -108.81958008 683.03271484 C-109.49011917 682.83444595 -110.16065826 682.63617706 -110.85151672 682.43190002 C-112.66120691 681.89865337 -114.47216223 681.36970557 -116.28320312 680.84106445 C-119 680 -119 680 -121 679 C-119.62685155 670.01211922 -108.65137543 661.33973476 -102.5625 654.78125 C-100.4534211 652.49212778 -98.40021288 650.17524836 -96.375 647.8125 C-90.81415804 641.41554099 -84.76610518 635.49362623 -78.32421875 629.98828125 C-76.54027804 628.46218743 -74.77557425 626.91358292 -73.01953125 625.35546875 C-45.80871507 601.34474413 -14.09665289 583.2570101 20 571 C20.82016602 570.68820801 21.64033203 570.37641602 22.48535156 570.05517578 C23.26620117 569.77013184 24.04705078 569.48508789 24.8515625 569.19140625 C25.53299316 568.93689697 26.21442383 568.6823877 26.91650391 568.42016602 C31.59671227 567.47633679 35.72190157 569.59298906 39.9609375 571.4140625 C41.72812134 572.17299805 41.72812134 572.17299805 43.53100586 572.94726562 C44.81269087 573.50569949 46.09401258 574.0649678 47.375 574.625 C48.03049835 574.91044678 48.6859967 575.19589355 49.36135864 575.48999023 C96.33639827 595.98839542 139.77040494 620.97306787 178.50048828 654.72998047 C179.92978997 655.94053524 181.41526118 657.0838272 182.90234375 658.22265625 C183.59457031 658.80917969 184.28679687 659.39570312 185 660 C185 660.66 185 661.32 185 662 C185.8815979 662.38913574 185.8815979 662.38913574 186.78100586 662.78613281 C189.16130215 664.0882379 190.64404936 665.45520114 192.50390625 667.421875 C193.48278809 668.45441406 193.48278809 668.45441406 194.48144531 669.5078125 C195.16819336 670.24773438 195.85494141 670.98765625 196.5625 671.75 C197.27631836 672.51570312 197.99013672 673.28140625 198.72558594 674.0703125 C204.89558588 680.75980365 210.60828787 687.67325573 216 695 C216.47356934 695.6384082 216.94713867 696.27681641 217.43505859 696.93457031 C251 742.44672991 251 742.44672991 251 757 C247.47140978 755.77606096 244.63366354 754.14979363 241.60205078 751.98046875 C222.62228539 738.45798959 200.81116163 728.92489075 179 721 C177.94409668 720.61505371 176.88819336 720.23010742 175.80029297 719.83349609 C141.67355584 707.16869136 141.67355584 707.16869136 106 702 C106.50635986 702.29543701 107.01271973 702.59087402 107.53442383 702.89526367 C135.89519403 719.50889386 162.28151039 738.70081236 186.60546875 760.82421875 C188.22415471 762.29503127 189.85205971 763.75575155 191.48828125 765.20703125 C199.445492 772.2732324 207.07292052 779.60239035 213.98046875 787.70703125 C215.57524921 789.51773943 217.19568954 791.26967616 218.86328125 793.01171875 C226.6962907 801.21596088 233.71666579 809.80374599 240.4609375 818.92138672 C241.92186468 820.8944727 243.39649853 822.85647285 244.875 824.81640625 C267.91576348 855.54689266 287.1487206 890.40277176 300.40625 926.4453125 C300.79208252 927.48365234 301.17791504 928.52199219 301.57543945 929.59179688 C302.29187188 931.54590366 302.98744767 933.50784773 303.65698242 935.47851562 C306.10495512 942.18863266 309.27956014 945.79997073 315 950 C316.03411011 950.78938965 316.03411011 950.78938965 317.08911133 951.59472656 C319.22460724 953.20075043 321.38638464 954.76202678 323.5625 956.3125 C324.34262451 956.87155029 325.12274902 957.43060059 325.92651367 958.0065918 C343.43104184 972.5084529 343.43104184 972.5084529 363 981 C362.60167969 980.45472656 362.20335937 979.90945313 361.79296875 979.34765625 C361.26316406 978.59355469 360.73335937 977.83945312 360.1875 977.0625 C359.66542969 976.33160156 359.14335938 975.60070312 358.60546875 974.84765625 C353.60511632 965.978418 352.43509337 955.55180862 350.62109375 945.66796875 C350.29431846 943.91519377 349.96688251 942.16254186 349.63883972 940.41000366 C348.93507538 936.6452728 348.23478985 932.87991851 347.53717041 929.11404419 C345.65331814 918.95029479 343.74120016 908.79183041 341.83203125 898.6328125 C341.63481224 897.58242105 341.43759323 896.53202961 341.23439789 895.44980812 C318.36052054 756.20222856 318.36052054 756.20222856 274 623 C273.59716797 622.09846191 273.19433594 621.19692383 272.77929688 620.26806641 C253.17131699 576.53854234 222.02930979 541.24165844 176.625 523.8125 C129.88269456 506.40034214 78.42006806 503.8808361 30 516 C29.07993164 516.2263916 28.15986328 516.4527832 27.21191406 516.68603516 C-30.04631899 531.02425385 -82.96335976 563.20609694 -124.26171875 605.29296875 C-127.37172136 608.3470612 -130.68742272 611.16925215 -134 614 C-134.66 613.67 -135.32 613.34 -136 613 C-116.65362709 569.91914017 -94.50495891 527.51986481 -63.41992188 491.64086914 C-62.44120308 490.50985659 -61.46890686 489.37326508 -60.50195312 488.23217773 C-55.67115914 482.59408709 -50.49743847 477.31127963 -45.24951172 472.06420898 C-43.76106763 470.57358385 -42.28082723 469.07512983 -40.80078125 467.57617188 C-34.53166405 461.26933944 -28.01938712 455.47856218 -21 450 C-20.23413574 449.40050537 -19.46827148 448.80101074 -18.67919922 448.18334961 C5.91105475 429.20602925 33.20995216 414.07160268 63 405 C64.29188232 404.60240479 64.29188232 404.60240479 65.60986328 404.19677734 C85.95923403 398.0351409 106.83322607 394.72780383 128 393 C129.05960937 392.91322998 129.05960937 392.91322998 130.140625 392.82470703 C173.96142159 389.40627915 221.61382156 392.08766948 257 421 C242.76621362 373.41848553 219.17277846 326.66185545 194 284 C193.38882324 282.9598877 192.77764648 281.91977539 192.14794922 280.84814453 C184.77394541 268.32966016 177.28072986 255.94055657 169 244 C168.4652002 243.22317871 167.93040039 242.44635742 167.37939453 241.64599609 C160.18722615 231.20782257 152.84741524 220.955297 145 211 C144.13174131 209.87582652 143.26458572 208.75080035 142.3984375 207.625 C133.54692342 196.16509201 124.31306773 185.01055121 113.9140625 174.9140625 C112.13856426 173.13856426 110.53293085 171.31169948 108.9375 169.375 C106.2350446 166.13503966 103.20345492 163.46873531 99.9921875 160.7421875 C98.12494265 159.10926357 96.40737604 157.41070861 94.6875 155.625 C90.12600548 151.01259594 85.08216591 147.01832706 80 143 C79.30310059 142.44795898 78.60620117 141.89591797 77.88818359 141.32714844 C75.55476815 139.48337589 73.21594826 137.64669727 70.875 135.8125 C69.76547974 134.93936157 69.76547974 134.93936157 68.63354492 134.04858398 C63.57858326 130.11134731 58.37760098 126.4828406 53 123 C53.51146933 134.18344919 55.38315841 145.01447888 57.4375 156 C57.69768921 157.4004657 57.69768921 157.4004657 57.96313477 158.82922363 C69.16840922 218.61522693 90.08237706 279.37538345 129 327 C129.78117187 327.97195313 130.56234375 328.94390625 131.3671875 329.9453125 C135.38184375 334.90618403 139.47812853 339.72372592 143.8828125 344.34375 C144.25148438 344.8903125 144.62015625 345.436875 145 346 C144.67 346.99 144.34 347.98 144 349 C143.43796875 348.9278125 142.8759375 348.855625 142.296875 348.78125 C113.41531199 345.59187494 84.82309225 350.32882614 57.64526367 360.20825195 C52.3114707 362.10382357 52.3114707 362.10382357 49 361 C47.59643555 358.44433594 47.59643555 358.44433594 46.13671875 354.984375 C45.86840744 354.35462265 45.60009613 353.7248703 45.32365417 353.07603455 C44.43253878 350.97233559 43.55920338 348.86181046 42.6875 346.75 C42.06465412 345.25885447 41.44176929 343.76772521 40.81884766 342.27661133 C6.61276216 259.9322048 -17.68059911 175.33800056 -1 2 C-0.67 1.34 -0.34 0.68 0 0 Z " fill="#030303" transform="translate(199,14)"/>
<path d="M0 0 C0 0.99 0 1.98 0 3 C-1.65234375 4.54296875 -1.65234375 4.54296875 -3.9375 6.1875 C-12.91116063 12.91423465 -20.1601693 20.09700726 -27 29 C-27.43602539 29.56106445 -27.87205078 30.12212891 -28.32128906 30.70019531 C-34.61995884 38.84325169 -40.05099899 47.18112248 -44.9296875 56.24609375 C-45.27290039 56.85686768 -45.61611328 57.4676416 -45.96972656 58.09692383 C-47.03789165 60.00799556 -47.03789165 60.00799556 -47.92871094 62.11206055 C-49.65149764 65.58854136 -51.02936481 67.53682965 -54.58935547 69.2355957 C-57.86914837 70.28282141 -61.15254078 71.13272872 -64.5 71.9375 C-88.71417422 78.43426245 -111.01286052 88.82751219 -131 104 C-132.16735838 100.49792486 -131.84012863 99.94706418 -130.4453125 96.67578125 C-130.08252197 95.81992432 -129.71973145 94.96406738 -129.34594727 94.08227539 C-128.94303467 93.16824951 -128.54012207 92.25422363 -128.125 91.3125 C-127.7137085 90.37075928 -127.30241699 89.42901855 -126.87866211 88.45874023 C-110.96904043 52.68255838 -86.27576133 26.34007624 -49.45947266 12.01123047 C-34.32438419 6.38995546 -16.33385213 0 0 0 Z " fill="#0A0B0A" transform="translate(843,562)"/>
<path d="M0 0 C7.28296984 -0.30188476 13.62877467 0.75075481 20.6875 2.5 C21.7796582 2.76917236 22.87181641 3.03834473 23.99707031 3.31567383 C60.48517005 12.617235 92.19241039 29.90738391 113 62 C113.3810791 62.57943359 113.7621582 63.15886719 114.15478516 63.75585938 C119.11941873 71.37943815 123.23196226 79.28383508 127 87.5625 C127.57923218 88.8302124 127.57923218 88.8302124 128.17016602 90.12353516 C130.06750636 94.41582263 131.51053813 98.28128163 132 103 C130.35332211 101.95966892 128.70771339 100.91764553 127.0625 99.875 C126.14597656 99.29492188 125.22945313 98.71484375 124.28515625 98.1171875 C122.51484144 96.97627118 120.74958599 95.8262257 119.01928711 94.62548828 C113.08500968 90.53256167 106.93386871 87.23914367 100.4375 84.125 C99.35774902 83.60687744 98.27799805 83.08875488 97.16552734 82.55493164 C87.81558717 78.17982178 78.28411027 74.71882824 68.4453125 71.62109375 C67.54852783 71.33717773 66.65174316 71.05326172 65.7277832 70.76074219 C62.99431424 69.94698914 62.99431424 69.94698914 60.10620117 69.51269531 C55.84573056 68.72204017 52.97274582 68.08398177 50.01660156 64.78979492 C48.17985343 61.88834409 46.6039374 58.94331744 45.0625 55.875 C43.87575807 53.68685774 42.68299147 51.50197277 41.484375 49.3203125 C40.90107422 48.24426758 40.31777344 47.16822266 39.71679688 46.05957031 C31.29219045 31.04575237 20.08151402 18.22027502 7.171875 6.9140625 C4.66652456 4.70610978 2.3212649 2.39864039 0 0 Z " fill="#0B0B0B" transform="translate(324,563)"/>
<path d="M0 0 C0 3 0 3 -1.44262695 4.8033905 C-2.45522583 5.80599663 -2.45522583 5.80599663 -3.48828125 6.82885742 C-4.62946411 7.96970039 -4.62946411 7.96970039 -5.79370117 9.1335907 C-6.62490479 9.94931046 -7.4561084 10.76503021 -8.3125 11.60546875 C-9.15594971 12.44467361 -9.99939941 13.28387848 -10.8684082 14.14851379 C-13.57200158 16.8352738 -16.28582468 19.51143435 -19 22.1875 C-20.8314109 24.00387017 -22.66214909 25.8209189 -24.4921875 27.63867188 C-28.98700658 32.1003598 -33.49027501 36.55338177 -38 41 C-38.66 40.67 -39.32 40.34 -40 40 C-36.83210849 36.108019 -33.5586868 32.54652363 -30 29 C-28.32846894 27.306935 -26.65792833 25.6128917 -24.98828125 23.91796875 C-23.579322 22.49522513 -22.17034802 21.07249573 -20.76049805 19.65063477 C-19.78803116 18.66800215 -18.81735068 17.68359867 -17.84838867 16.69750977 C-16.44137874 15.2663675 -15.02743802 13.84204942 -13.61328125 12.41796875 C-12.77579346 11.57000732 -11.93830566 10.7220459 -11.07543945 9.84838867 C-9 8 -9 8 -7 8 C-7 7.34 -7 6.68 -7 6 C-5.46875 4.4921875 -5.46875 4.4921875 -3.5 2.875 C-2.8503125 2.33617187 -2.200625 1.79734375 -1.53125 1.2421875 C-1.0259375 0.83226562 -0.520625 0.42234375 0 0 Z " fill="#555655" transform="translate(748,174)"/>
<path d="M0 0 C0.66 0.33 1.32 0.66 2 1 C-7.9 10.9 -17.8 20.8 -28 31 C-28.66 30.67 -29.32 30.34 -30 30 C-22.99220899 22.10233077 -15.93340808 14.60356505 -7.93359375 7.7109375 C-5.16155106 5.25809972 -2.58428299 2.64889006 0 0 Z " fill="#5C5D5C" transform="translate(785,771)"/>
<path d="M0 0 C0.66 0.33 1.32 0.66 2 1 C-7.24 10.24 -16.48 19.48 -26 29 C-26.66 28.67 -27.32 28.34 -28 28 C-20.22155676 19.4338663 -12.49209351 11.02955769 -3.69921875 3.48046875 C-2.42270555 2.36828828 -1.19716986 1.19716986 0 0 Z " fill="#5B5D5D" transform="translate(125,640)"/>
<path d="M0 0 C0.66 0.33 1.32 0.66 2 1 C-6.58 9.58 -15.16 18.16 -24 27 C-24.66 26.67 -25.32 26.34 -26 26 C-17.84829598 16.74671435 -9.10747072 8.30856978 0 0 Z " fill="#5B5C5B" transform="translate(794,664)"/>
<path d="M0 0 C0.66 0.33 1.32 0.66 2 1 C-3.61 6.61 -9.22 12.22 -15 18 C-15.66 17.67 -16.32 17.34 -17 17 C-11.83794309 10.72690435 -6.12627407 5.3250511 0 0 Z " fill="#4C4D4C" transform="translate(757,594)"/>
<path d="M0 0 C1.13583456 3.71727674 0.66670026 5.47051709 -1 9 C0.32 9.33 1.64 9.66 3 10 C1.87926138 10.83905565 0.75325453 11.67107831 -0.375 12.5 C-1.00148438 12.9640625 -1.62796875 13.428125 -2.2734375 13.90625 C-4 15 -4 15 -6 15 C-4.40109514 9.80355921 -2.25861997 4.93387858 0 0 Z " fill="#6A696A" transform="translate(723,756)"/>
<path d="M0 0 C0.93423645 3.01031744 1.04449911 3.86650268 0 7 C1.32 7.33 2.64 7.66 4 8 C1.36 9.65 -1.28 11.3 -4 13 C-3.40895235 8.15340923 -2.02055843 4.39251833 0 0 Z " fill="#696868" transform="translate(715,653)"/>
<path d="M0 0 C2.3129482 2.3129482 2.49580975 3.47904875 3.125 6.625 C3.29257812 7.44226563 3.46015625 8.25953125 3.6328125 9.1015625 C3.81457031 10.04128906 3.81457031 10.04128906 4 11 C1.69 9.35 -0.62 7.7 -3 6 C-2.01 4.02 -1.02 2.04 0 0 Z " fill="#5F5F5E" transform="translate(452,655)"/>
<path d="M0 0 C9.41002278 -0.18451025 9.41002278 -0.18451025 14 1 C14 1.33 14 1.66 14 2 C11.36 2 8.72 2 6 2 C6.33 3.32 6.66 4.64 7 6 C1.125 2.25 1.125 2.25 0 0 Z " fill="#676766" transform="translate(324,563)"/>
<path d="M0 0 C2 4 2 4 1.875 6 C0.73959163 8.59521914 -0.91485678 10.11664483 -3 12 C-3.66 11.67 -4.32 11.34 -5 11 C-3.35 7.37 -1.7 3.74 0 0 Z " fill="#636261" transform="translate(68,616)"/>
<path d="M0 0 C2.97903734 2.97903734 4 5.80285329 4 10 C-0.1424367 8.61918777 -1.32203099 6.40174442 -4 3 C-2.68 3.33 -1.36 3.66 0 4 C0 2.68 0 1.36 0 0 Z " fill="#80807F" transform="translate(1100,618)"/>
<path d="M0 0 C2.50298434 2.93828597 3.46930939 5.17902761 4 9 C-0.875 7.25 -0.875 7.25 -2 5 C-1.0625 2.375 -1.0625 2.375 0 0 Z " fill="#595958" transform="translate(446,762)"/>
<path d="M0 0 C0 0.99 0 1.98 0 3 C-4.62 3 -9.24 3 -14 3 C-14 2.67 -14 2.34 -14 2 C-12.04200486 1.66468585 -10.08359226 1.33180857 -8.125 1 C-6.48917969 0.7215625 -6.48917969 0.7215625 -4.8203125 0.4375 C-2 0 -2 0 0 0 Z " fill="#888A89" transform="translate(843,562)"/>
<path d="M0 0 C-0.33 1.32 -0.66 2.64 -1 4 C-3.31 3.34 -5.62 2.68 -8 2 C-4.91190305 0.23537317 -3.76687864 0 0 0 Z " fill="#686868" transform="translate(919,372)"/>
</svg>
